<svg width="19" height="24" viewBox="0 0 19 24" fill="none" xmlns="http://www.w3.org/2000/svg">
<path d="M11.8395 3.38808C11.9277 3.32979 11.9714 3.23942 11.9714 3.11412C11.9714 2.98443 11.932 2.89187 11.8533 2.83722C11.7739 2.78182 11.6508 2.75342 11.4825 2.75342H11.1641V3.47407H11.4548C11.6238 3.47407 11.752 3.44492 11.8395 3.38808Z" fill="white"/>
<path d="M11.819 4.13123C11.7571 4.11518 11.682 4.10791 11.5946 4.10791H11.1836V4.83798H11.5967C11.6885 4.83798 11.7657 4.82777 11.8284 4.80739C11.8911 4.78552 11.9414 4.75857 11.9785 4.72434C12.0164 4.68936 12.0434 4.64856 12.0601 4.60337C12.0769 4.55749 12.0856 4.50866 12.0856 4.45765C12.0856 4.403 12.0762 4.35417 12.0572 4.31048C12.039 4.26823 12.0099 4.23176 11.9706 4.20117C11.9304 4.17058 11.8802 4.14727 11.819 4.13123Z" fill="white"/>
<path d="M18.3696 11.2824C18.1459 11.2824 17.9215 11.1979 17.5091 11.1702C16.0883 8.76358 13.4689 7.1482 10.4713 7.1482C9.15761 7.1482 7.91748 7.46007 6.818 8.01089C4.94251 6.28113 2.77925 7.25312 2.77925 7.25312L3.98296 10.3571C3.47659 11.0172 3.06926 11.7575 2.78294 12.5546C2.04485 12.645 1.27468 12.7295 0.838947 12.752C0.545306 12.7688 -0.0273806 13.1317 0.00101821 13.7175C0.0651371 15.0712 0.723813 17.6491 1.48452 17.9143C1.851 18.0426 2.36833 18.2102 2.89658 18.3763C3.08894 18.8514 3.32503 19.306 3.59969 19.7315L5.76878 23.8759H8.61626L8.48947 22.4157H13.0302V23.8759H15.807L18.0497 18.3675C18.0621 18.3369 18.0745 18.3063 18.0869 18.2757L18.2275 17.9318L18.2086 17.9376C18.4884 17.1157 18.6399 16.2341 18.6399 15.316C18.6399 14.4417 18.5008 13.5994 18.2464 12.8095C18.3295 12.7265 18.4374 12.6361 18.5831 12.5429C19.3306 12.062 18.9568 11.2824 18.3696 11.2824ZM5.06272 12.5626C5.06272 12.2631 5.3061 12.0197 5.60627 12.0197C5.90644 12.0197 6.14981 12.2631 6.14981 12.5626C6.14981 12.8635 5.90644 13.1069 5.60627 13.1069C5.3061 13.1069 5.06272 12.8635 5.06272 12.5626ZM6.80415 17.4298C6.01868 17.4298 5.38187 16.793 5.38187 16.0068C5.38187 15.2213 6.01868 14.5845 6.80415 14.5845C7.59031 14.5845 8.22716 15.2213 8.22716 16.0068C8.22716 16.7929 7.59031 17.4298 6.80415 17.4298Z" fill="white"/>
<path d="M10.4745 6.21226C11.6191 6.21226 12.7391 6.43087 13.7788 6.83889C14.7107 6.14814 15.3176 5.04357 15.3176 3.79323C15.3176 1.69843 13.6192 0 11.5244 0C9.4296 0 7.73047 1.69843 7.73047 3.79323C7.73047 4.79292 8.11957 5.6993 8.75129 6.37547C9.31451 6.26761 9.88939 6.21226 10.4745 6.21226ZM10.0394 5.15427C10.0394 5.07705 10.0344 5.03042 10.1145 5.01438C10.1218 5.01293 10.1312 5.01144 10.1444 5.00855C10.1575 5.0071 10.3149 4.99689 10.3498 4.99689C10.4125 4.99689 10.4431 4.93715 10.4431 4.87737V2.70899C10.4431 2.63685 10.4037 2.60845 10.3498 2.60043C10.3149 2.59535 10.1575 2.59096 10.1444 2.58802C10.1313 2.58658 10.1211 2.58509 10.1145 2.58364C10.0343 2.5676 10.0394 2.52097 10.0394 2.44374V2.18004H10.4431H10.7542V1.7341H11.1477V2.18149L11.504 2.18293V1.7341H11.8967V2.18876C12.1088 2.20625 12.3711 2.27331 12.551 2.4132C12.6523 2.49192 12.7303 2.57786 12.7791 2.68427C12.8265 2.78994 12.8505 2.91016 12.8505 3.04278C12.8505 3.11856 12.8389 3.19144 12.8148 3.2599C12.7907 3.32984 12.7536 3.39471 12.7026 3.45519C12.6523 3.51567 12.4833 3.6869 12.3324 3.74519C12.7929 3.82536 13.0086 4.08547 13.0086 4.4651C13.0086 4.60355 12.9809 4.72959 12.9248 4.84692C12.868 4.96275 12.7863 5.06259 12.6785 5.14714C12.5714 5.23168 12.4796 5.29724 12.3222 5.34532C12.1976 5.38323 12.0424 5.40506 11.8967 5.41382V5.85319H11.504V5.41676H11.1477V5.85319H10.7542V5.41676H10.443H10.0394V5.15427H10.0394Z" fill="white"/>
</svg>
