<svg width="181" height="309" viewBox="0 0 181 309" fill="none" xmlns="http://www.w3.org/2000/svg">
<path d="M69.5324 102.5C-14.4676 77.3 -5.13426 23.6667 10.0324 0C96.5322 14.5 99.0322 59.5 82.0322 102.5C74.0322 64.5 40.0322 35 24.0322 25C55.2322 56.2 67.3657 89.6667 69.5324 102.5Z" fill="#7BBF14"/>
<path d="M180.532 48C108.132 55.2 96.0322 84 99.0322 97.5C120.232 76.7 150.532 69.8333 163.032 69C139.032 73 114.032 96.6667 104.532 108C170.932 114.4 182.866 70.6667 180.532 48Z" fill="#7BBF14"/>
<circle cx="90.5322" cy="218.5" r="90" fill="#F1BA15"/>
<circle cx="90.5322" cy="218.5" r="75" fill="#F1E634"/>
<path d="M96.5316 169H86.5316V180C53.7311 192 75.0322 217.5 84.0322 221C117.532 237 95.0322 259.5 73.5322 245.5L68.5322 254.5C69.7322 260.1 80.3656 261.167 85.5322 261V269H96.5316V259.5C127.731 241.5 109.532 221.897 96.5316 215.5C65.0322 200 86.5319 182 105.532 193.5L109.532 183.5C109.532 181.9 100.865 180.5 96.5316 180V169Z" fill="#EEBE16"/>
</svg>
